<svg width="334" height="334" viewBox="0 0 334 334" fill="none" xmlns="http://www.w3.org/2000/svg">
<g clip-path="url(#clip0_9_67)">
<rect width="334" height="334" rx="62" fill="white"/>
<path d="M63.492 123.11C60.8407 123.11 58.2863 122.658 55.829 121.752C53.307 120.847 51.0437 119.554 49.039 117.872L56.605 105.359C57.1223 105.941 57.8013 106.394 58.642 106.717C59.4827 107.105 60.3233 107.299 61.164 107.299C62.0047 107.299 62.6837 107.138 63.201 106.814C63.783 106.491 64.2357 106.006 64.559 105.359C64.8823 104.713 65.044 103.969 65.044 103.128V51.8155H83.474V101.673C83.474 105.877 82.601 109.595 80.855 112.828C79.1737 116.062 76.8457 118.584 73.871 120.394C70.8963 122.205 67.4367 123.11 63.492 123.11ZM65.044 47.5475V32.0275H83.474V47.5475H65.044ZM117.913 103.807C113.386 103.807 109.377 103.096 105.885 101.673C102.393 100.251 99.4505 98.3108 97.0578 95.8535C94.7298 93.3315 92.9515 90.4861 91.7228 87.3175C90.5588 84.1488 89.9768 80.8185 89.9768 77.3265C89.9768 73.8345 90.5588 70.5041 91.7228 67.3355C92.9515 64.1021 94.7298 61.2568 97.0578 58.7995C99.4505 56.3421 102.393 54.4021 105.885 52.9795C109.377 51.5568 113.386 50.8455 117.913 50.8455C122.504 50.8455 126.513 51.5568 129.941 52.9795C133.433 54.4021 136.343 56.3421 138.671 58.7995C141.063 61.2568 142.842 64.1021 144.006 67.3355C145.234 70.5041 145.849 73.8345 145.849 77.3265C145.849 80.8185 145.234 84.1488 144.006 87.3175C142.842 90.4861 141.063 93.3315 138.671 95.8535C136.343 98.3108 133.433 100.251 129.941 101.673C126.513 103.096 122.504 103.807 117.913 103.807ZM108.892 77.3265C108.892 79.5898 109.28 81.5621 110.056 83.2435C110.832 84.8601 111.899 86.1211 113.257 87.0265C114.615 87.8671 116.167 88.2875 117.913 88.2875C119.659 88.2875 121.211 87.8671 122.569 87.0265C123.927 86.1211 124.994 84.8601 125.77 83.2435C126.546 81.5621 126.934 79.5898 126.934 77.3265C126.934 75.0631 126.546 73.1231 125.77 71.5065C124.994 69.8251 123.927 68.5641 122.569 67.7235C121.211 66.8181 119.659 66.3655 117.913 66.3655C116.167 66.3655 114.615 66.8181 113.257 67.7235C111.899 68.5641 110.832 69.8251 110.056 71.5065C109.28 73.1231 108.892 75.0631 108.892 77.3265ZM186.711 103.807C183.025 103.807 179.824 103.096 177.108 101.673C174.392 100.186 172.29 98.0521 170.803 95.2715V123.498H152.373V51.8155H168.378V59.4785C170.188 56.6978 172.419 54.5638 175.071 53.0765C177.787 51.5891 181.052 50.8455 184.868 50.8455C188.295 50.8455 191.431 51.4921 194.277 52.7855C197.122 54.0788 199.612 55.9218 201.746 58.3145C203.88 60.7071 205.529 63.4878 206.693 66.6565C207.857 69.8251 208.439 73.3171 208.439 77.1325C208.439 82.2411 207.501 86.8001 205.626 90.8095C203.75 94.8188 201.164 97.9875 197.866 100.315C194.632 102.643 190.914 103.807 186.711 103.807ZM180.309 88.2875C181.667 88.2875 182.895 87.9965 183.995 87.4145C185.159 86.8325 186.161 86.0241 187.002 84.9895C187.842 83.9548 188.489 82.7585 188.942 81.4005C189.394 80.0425 189.621 78.5875 189.621 77.0355C189.621 75.4188 189.362 73.9638 188.845 72.6705C188.392 71.3771 187.713 70.2778 186.808 69.3725C185.902 68.4025 184.835 67.6588 183.607 67.1415C182.378 66.6241 181.02 66.3655 179.533 66.3655C178.692 66.3655 177.851 66.4948 177.011 66.7535C176.235 66.9475 175.491 67.2708 174.78 67.7235C174.068 68.1115 173.357 68.6288 172.646 69.2755C171.999 69.9221 171.385 70.6981 170.803 71.6035V80.4305C171.385 81.9178 172.161 83.2758 173.131 84.5045C174.165 85.6685 175.297 86.6061 176.526 87.3175C177.754 87.9641 179.015 88.2875 180.309 88.2875ZM249.515 103.807C245.829 103.807 242.628 103.096 239.912 101.673C237.196 100.186 235.094 98.0521 233.607 95.2715V123.498H215.177V51.8155H231.182V59.4785C232.992 56.6978 235.223 54.5638 237.875 53.0765C240.591 51.5891 243.856 50.8455 247.672 50.8455C251.099 50.8455 254.235 51.4921 257.081 52.7855C259.926 54.0788 262.416 55.9218 264.55 58.3145C266.684 60.7071 268.333 63.4878 269.497 66.6565C270.661 69.8251 271.243 73.3171 271.243 77.1325C271.243 82.2411 270.305 86.8001 268.43 90.8095C266.554 94.8188 263.968 97.9875 260.67 100.315C257.436 102.643 253.718 103.807 249.515 103.807ZM243.113 88.2875C244.471 88.2875 245.699 87.9965 246.799 87.4145C247.963 86.8325 248.965 86.0241 249.806 84.9895C250.646 83.9548 251.293 82.7585 251.746 81.4005C252.198 80.0425 252.425 78.5875 252.425 77.0355C252.425 75.4188 252.166 73.9638 251.649 72.6705C251.196 71.3771 250.517 70.2778 249.612 69.3725C248.706 68.4025 247.639 67.6588 246.411 67.1415C245.182 66.6241 243.824 66.3655 242.337 66.3655C241.496 66.3655 240.655 66.4948 239.815 66.7535C239.039 66.9475 238.295 67.2708 237.584 67.7235C236.872 68.1115 236.161 68.6288 235.45 69.2755C234.803 69.9221 234.189 70.6981 233.607 71.6035V80.4305C234.189 81.9178 234.965 83.2758 235.935 84.5045C236.969 85.6685 238.101 86.6061 239.33 87.3175C240.558 87.9641 241.819 88.2875 243.113 88.2875Z" fill="#063B46"/>
<path d="M94.44 175.392C94.44 170.348 95.3777 165.854 97.253 161.909C99.193 157.9 101.844 154.763 105.207 152.5C108.57 150.172 112.417 149.008 116.75 149.008C120.048 149.008 123.087 149.784 125.868 151.336C128.649 152.823 130.75 154.893 132.173 157.544V130.19H150.603V180.63C150.603 182.376 150.862 183.605 151.379 184.316C151.896 184.963 152.802 185.351 154.095 185.48V201C150.926 201.647 148.34 201.97 146.335 201.97C143.231 201.97 140.774 201.388 138.963 200.224C137.152 199.06 135.988 197.282 135.471 194.889L135.083 193.046C133.337 196.15 130.977 198.413 128.002 199.836C125.027 201.259 121.859 201.97 118.496 201.97C115.004 201.97 111.771 201.323 108.796 200.03C105.886 198.737 103.332 196.926 101.133 194.598C98.999 192.205 97.35 189.392 96.186 186.159C95.022 182.861 94.44 179.272 94.44 175.392ZM132.27 181.212V172.094C131.688 170.607 130.88 169.313 129.845 168.214C128.875 167.05 127.776 166.145 126.547 165.498C125.318 164.851 124.057 164.528 122.764 164.528C121.406 164.528 120.145 164.819 118.981 165.401C117.882 165.983 116.912 166.791 116.071 167.826C115.23 168.861 114.584 170.057 114.131 171.415C113.678 172.773 113.452 174.228 113.452 175.78C113.452 177.397 113.678 178.852 114.131 180.145C114.648 181.438 115.36 182.57 116.265 183.54C117.17 184.445 118.237 185.157 119.466 185.674C120.695 186.191 122.053 186.45 123.54 186.45C124.445 186.45 125.286 186.353 126.062 186.159C126.838 185.9 127.582 185.577 128.293 185.189C129.004 184.736 129.683 184.187 130.33 183.54C131.041 182.829 131.688 182.053 132.27 181.212ZM186.788 201.97C182.261 201.97 178.252 201.259 174.76 199.836C171.268 198.413 168.325 196.473 165.933 194.016C163.605 191.494 161.826 188.649 160.598 185.48C159.434 182.311 158.852 178.981 158.852 175.489C158.852 171.997 159.434 168.667 160.598 165.498C161.826 162.265 163.605 159.419 165.933 156.962C168.325 154.505 171.268 152.565 174.76 151.142C178.252 149.719 182.261 149.008 186.788 149.008C191.379 149.008 195.388 149.719 198.816 151.142C202.308 152.565 205.218 154.505 207.546 156.962C209.938 159.419 211.717 162.265 212.881 165.498C214.109 168.667 214.724 171.997 214.724 175.489C214.724 178.981 214.109 182.311 212.881 185.48C211.717 188.649 209.938 191.494 207.546 194.016C205.218 196.473 202.308 198.413 198.816 199.836C195.388 201.259 191.379 201.97 186.788 201.97ZM177.767 175.489C177.767 177.752 178.155 179.725 178.931 181.406C179.707 183.023 180.774 184.284 182.132 185.189C183.49 186.03 185.042 186.45 186.788 186.45C188.534 186.45 190.086 186.03 191.444 185.189C192.802 184.284 193.869 183.023 194.645 181.406C195.421 179.725 195.809 177.752 195.809 175.489C195.809 173.226 195.421 171.286 194.645 169.669C193.869 167.988 192.802 166.727 191.444 165.886C190.086 164.981 188.534 164.528 186.788 164.528C185.042 164.528 183.49 164.981 182.132 165.886C180.774 166.727 179.707 167.988 178.931 169.669C178.155 171.286 177.767 173.226 177.767 175.489ZM256.283 198.187C254.602 198.898 252.791 199.577 250.851 200.224C248.976 200.806 247.036 201.259 245.031 201.582C243.091 201.905 241.183 202.067 239.308 202.067C236.527 202.067 233.973 201.614 231.645 200.709C229.317 199.739 227.442 198.187 226.019 196.053C224.661 193.854 223.982 190.912 223.982 187.226V163.849H217.677V149.978H223.982V133.973H242.412V149.978H252.403V163.849H242.412V180.727C242.412 182.408 242.768 183.605 243.479 184.316C244.19 184.963 245.16 185.286 246.389 185.286C247.294 185.286 248.329 185.124 249.493 184.801C250.657 184.478 251.821 184.09 252.985 183.637L256.283 198.187Z" fill="#063B46"/>
<path d="M85.94 273.555C85.94 268.511 86.8777 264.016 88.753 260.072C90.693 256.062 93.3443 252.926 96.707 250.663C100.07 248.335 103.917 247.171 108.25 247.171C111.548 247.171 114.587 247.947 117.368 249.499C120.149 250.986 122.25 253.055 123.673 255.707V228.353H142.103V278.793C142.103 280.539 142.362 281.767 142.879 282.479C143.396 283.125 144.302 283.513 145.595 283.643V299.163C142.426 299.809 139.84 300.133 137.835 300.133C134.731 300.133 132.274 299.551 130.463 298.387C128.652 297.223 127.488 295.444 126.971 293.052L126.583 291.209C124.837 294.313 122.477 296.576 119.502 297.999C116.527 299.421 113.359 300.133 109.996 300.133C106.504 300.133 103.271 299.486 100.296 298.193C97.386 296.899 94.8317 295.089 92.633 292.761C90.499 290.368 88.85 287.555 87.686 284.322C86.522 281.024 85.94 277.435 85.94 273.555ZM123.77 279.375V270.257C123.188 268.769 122.38 267.476 121.345 266.377C120.375 265.213 119.276 264.307 118.047 263.661C116.818 263.014 115.557 262.691 114.264 262.691C112.906 262.691 111.645 262.982 110.481 263.564C109.382 264.146 108.412 264.954 107.571 265.989C106.73 267.023 106.084 268.22 105.631 269.578C105.178 270.936 104.952 272.391 104.952 273.943C104.952 275.559 105.178 277.014 105.631 278.308C106.148 279.601 106.86 280.733 107.765 281.703C108.67 282.608 109.737 283.319 110.966 283.837C112.195 284.354 113.553 284.613 115.04 284.613C115.945 284.613 116.786 284.516 117.562 284.322C118.338 284.063 119.082 283.74 119.793 283.352C120.504 282.899 121.183 282.349 121.83 281.703C122.541 280.991 123.188 280.215 123.77 279.375ZM178.288 300.133C173.826 300.133 169.849 299.454 166.357 298.096C162.865 296.673 159.922 294.765 157.53 292.373C155.202 289.98 153.423 287.232 152.195 284.128C150.966 281.024 150.352 277.758 150.352 274.331C150.352 269.416 151.419 264.922 153.553 260.848C155.687 256.709 158.823 253.411 162.962 250.954C167.1 248.432 172.209 247.171 178.288 247.171C184.366 247.171 189.475 248.399 193.614 250.857C197.752 253.314 200.889 256.547 203.023 260.557C205.157 264.566 206.224 268.931 206.224 273.652C206.224 274.622 206.159 275.624 206.03 276.659C205.965 277.629 205.868 278.502 205.739 279.278H169.946C170.075 281.088 170.56 282.576 171.401 283.74C172.306 284.839 173.405 285.647 174.699 286.165C176.057 286.682 177.447 286.941 178.87 286.941C180.874 286.941 182.75 286.488 184.496 285.583C186.306 284.677 187.503 283.416 188.085 281.8L203.702 286.262C202.344 288.978 200.436 291.37 197.979 293.44C195.586 295.509 192.741 297.158 189.443 298.387C186.145 299.551 182.426 300.133 178.288 300.133ZM169.558 268.22H186.436C186.242 266.538 185.757 265.116 184.981 263.952C184.269 262.788 183.299 261.882 182.071 261.236C180.907 260.589 179.549 260.266 177.997 260.266C176.445 260.266 175.054 260.589 173.826 261.236C172.662 261.882 171.692 262.788 170.916 263.952C170.204 265.116 169.752 266.538 169.558 268.22ZM223.274 299.163L206.105 248.141H225.02L234.138 282.77L243.353 248.141H260.522L243.353 299.163H223.274Z" fill="#063B46"/>
</g>
<defs>
<clipPath id="clip0_9_67">
<rect width="334" height="334" fill="white"/>
</clipPath>
</defs>
</svg>
