<svg width="334" height="334" viewBox="0 0 334 334" fill="none" xmlns="http://www.w3.org/2000/svg">
<g clip-path="url(#clip0_9_51)">
<rect width="334" height="334" rx="62" fill="white"/>
<path d="M280.295 255.697C261.389 280.486 235.057 298.585 205.141 307.354C175.224 316.123 143.289 315.104 113.992 304.445C84.6959 293.785 59.5718 274.044 42.2852 248.101C24.9986 222.157 16.4539 191.369 17.8976 160.227C19.3413 129.085 30.6979 99.2192 50.3106 74.9863C69.9234 50.7534 96.7661 33.4212 126.923 25.5182C157.08 17.6152 188.973 19.5549 217.95 31.0544C246.927 42.5538 271.471 63.0113 288.003 89.4425" stroke="#063B46" stroke-width="20"/>
<path d="M221.987 138.032C220.675 138.032 219.411 137.808 218.195 137.36C216.947 136.912 215.827 136.272 214.835 135.44L218.579 129.248C218.835 129.536 219.171 129.76 219.587 129.92C220.003 130.112 220.419 130.208 220.835 130.208C221.251 130.208 221.587 130.128 221.843 129.968C222.131 129.808 222.355 129.568 222.515 129.248C222.675 128.928 222.755 128.56 222.755 128.144V102.752H231.875V127.424C231.875 129.504 231.443 131.344 230.579 132.944C229.747 134.544 228.595 135.792 227.123 136.688C225.651 137.584 223.939 138.032 221.987 138.032ZM222.755 100.64V92.96H231.875V100.64H222.755ZM248.917 128.48C246.677 128.48 244.693 128.128 242.965 127.424C241.237 126.72 239.781 125.76 238.597 124.544C237.445 123.296 236.565 121.888 235.957 120.32C235.381 118.752 235.093 117.104 235.093 115.376C235.093 113.648 235.381 112 235.957 110.432C236.565 108.832 237.445 107.424 238.597 106.208C239.781 104.992 241.237 104.032 242.965 103.328C244.693 102.624 246.677 102.272 248.917 102.272C251.189 102.272 253.173 102.624 254.869 103.328C256.597 104.032 258.037 104.992 259.189 106.208C260.373 107.424 261.253 108.832 261.829 110.432C262.437 112 262.741 113.648 262.741 115.376C262.741 117.104 262.437 118.752 261.829 120.32C261.253 121.888 260.373 123.296 259.189 124.544C258.037 125.76 256.597 126.72 254.869 127.424C253.173 128.128 251.189 128.48 248.917 128.48ZM244.453 115.376C244.453 116.496 244.645 117.472 245.029 118.304C245.413 119.104 245.941 119.728 246.613 120.176C247.285 120.592 248.053 120.8 248.917 120.8C249.781 120.8 250.549 120.592 251.221 120.176C251.893 119.728 252.421 119.104 252.805 118.304C253.189 117.472 253.381 116.496 253.381 115.376C253.381 114.256 253.189 113.296 252.805 112.496C252.421 111.664 251.893 111.04 251.221 110.624C250.549 110.176 249.781 109.952 248.917 109.952C248.053 109.952 247.285 110.176 246.613 110.624C245.941 111.04 245.413 111.664 245.029 112.496C244.645 113.296 244.453 114.256 244.453 115.376ZM282.962 128.48C281.138 128.48 279.554 128.128 278.21 127.424C276.866 126.688 275.826 125.632 275.09 124.256V138.224H265.97V102.752H273.89V106.544C274.786 105.168 275.89 104.112 277.202 103.376C278.546 102.64 280.162 102.272 282.05 102.272C283.746 102.272 285.298 102.592 286.706 103.232C288.114 103.872 289.346 104.784 290.402 105.968C291.458 107.152 292.274 108.528 292.85 110.096C293.426 111.664 293.714 113.392 293.714 115.28C293.714 117.808 293.25 120.064 292.322 122.048C291.394 124.032 290.114 125.6 288.482 126.752C286.882 127.904 285.042 128.48 282.962 128.48ZM279.794 120.8C280.466 120.8 281.074 120.656 281.618 120.368C282.194 120.08 282.69 119.68 283.106 119.168C283.522 118.656 283.842 118.064 284.066 117.392C284.29 116.72 284.402 116 284.402 115.232C284.402 114.432 284.274 113.712 284.018 113.072C283.794 112.432 283.458 111.888 283.01 111.44C282.562 110.96 282.034 110.592 281.426 110.336C280.818 110.08 280.146 109.952 279.41 109.952C278.994 109.952 278.578 110.016 278.162 110.144C277.778 110.24 277.41 110.4 277.058 110.624C276.706 110.816 276.354 111.072 276.002 111.392C275.682 111.712 275.378 112.096 275.09 112.544V116.912C275.378 117.648 275.762 118.32 276.242 118.928C276.754 119.504 277.314 119.968 277.922 120.32C278.53 120.64 279.154 120.8 279.794 120.8ZM314.04 128.48C312.216 128.48 310.632 128.128 309.288 127.424C307.944 126.688 306.904 125.632 306.168 124.256V138.224H297.048V102.752H304.968V106.544C305.864 105.168 306.968 104.112 308.28 103.376C309.624 102.64 311.24 102.272 313.128 102.272C314.824 102.272 316.376 102.592 317.784 103.232C319.192 103.872 320.424 104.784 321.48 105.968C322.536 107.152 323.352 108.528 323.928 110.096C324.504 111.664 324.792 113.392 324.792 115.28C324.792 117.808 324.328 120.064 323.4 122.048C322.472 124.032 321.192 125.6 319.56 126.752C317.96 127.904 316.12 128.48 314.04 128.48ZM310.872 120.8C311.544 120.8 312.152 120.656 312.696 120.368C313.272 120.08 313.768 119.68 314.184 119.168C314.6 118.656 314.92 118.064 315.144 117.392C315.368 116.72 315.48 116 315.48 115.232C315.48 114.432 315.352 113.712 315.096 113.072C314.872 112.432 314.536 111.888 314.088 111.44C313.64 110.96 313.112 110.592 312.504 110.336C311.896 110.08 311.224 109.952 310.488 109.952C310.072 109.952 309.656 110.016 309.24 110.144C308.856 110.24 308.488 110.4 308.136 110.624C307.784 110.816 307.432 111.072 307.08 111.392C306.76 111.712 306.456 112.096 306.168 112.544V116.912C306.456 117.648 306.84 118.32 307.32 118.928C307.832 119.504 308.392 119.968 309 120.32C309.608 120.64 310.232 120.8 310.872 120.8Z" fill="#063B46"/>
<path d="M245.219 171.328C245.219 168.832 245.683 166.608 246.611 164.656C247.571 162.672 248.883 161.12 250.547 160C252.211 158.848 254.115 158.272 256.259 158.272C257.891 158.272 259.395 158.656 260.771 159.424C262.147 160.16 263.187 161.184 263.891 162.496V148.96H273.011V173.92C273.011 174.784 273.139 175.392 273.395 175.744C273.651 176.064 274.099 176.256 274.739 176.32V184C273.171 184.32 271.891 184.48 270.899 184.48C269.363 184.48 268.147 184.192 267.251 183.616C266.355 183.04 265.779 182.16 265.523 180.976L265.331 180.064C264.467 181.6 263.299 182.72 261.827 183.424C260.355 184.128 258.787 184.48 257.123 184.48C255.395 184.48 253.795 184.16 252.323 183.52C250.883 182.88 249.619 181.984 248.531 180.832C247.475 179.648 246.659 178.256 246.083 176.656C245.507 175.024 245.219 173.248 245.219 171.328ZM263.939 174.208V169.696C263.651 168.96 263.251 168.32 262.739 167.776C262.259 167.2 261.715 166.752 261.107 166.432C260.499 166.112 259.875 165.952 259.235 165.952C258.563 165.952 257.939 166.096 257.363 166.384C256.819 166.672 256.339 167.072 255.923 167.584C255.507 168.096 255.187 168.688 254.963 169.36C254.739 170.032 254.627 170.752 254.627 171.52C254.627 172.32 254.739 173.04 254.963 173.68C255.219 174.32 255.571 174.88 256.019 175.36C256.467 175.808 256.995 176.16 257.603 176.416C258.211 176.672 258.883 176.8 259.619 176.8C260.067 176.8 260.483 176.752 260.867 176.656C261.251 176.528 261.619 176.368 261.971 176.176C262.323 175.952 262.659 175.68 262.979 175.36C263.331 175.008 263.651 174.624 263.939 174.208ZM290.917 184.48C288.677 184.48 286.693 184.128 284.965 183.424C283.237 182.72 281.781 181.76 280.597 180.544C279.445 179.296 278.565 177.888 277.957 176.32C277.381 174.752 277.093 173.104 277.093 171.376C277.093 169.648 277.381 168 277.957 166.432C278.565 164.832 279.445 163.424 280.597 162.208C281.781 160.992 283.237 160.032 284.965 159.328C286.693 158.624 288.677 158.272 290.917 158.272C293.189 158.272 295.173 158.624 296.869 159.328C298.597 160.032 300.037 160.992 301.189 162.208C302.373 163.424 303.253 164.832 303.829 166.432C304.437 168 304.741 169.648 304.741 171.376C304.741 173.104 304.437 174.752 303.829 176.32C303.253 177.888 302.373 179.296 301.189 180.544C300.037 181.76 298.597 182.72 296.869 183.424C295.173 184.128 293.189 184.48 290.917 184.48ZM286.453 171.376C286.453 172.496 286.645 173.472 287.029 174.304C287.413 175.104 287.941 175.728 288.613 176.176C289.285 176.592 290.053 176.8 290.917 176.8C291.781 176.8 292.549 176.592 293.221 176.176C293.893 175.728 294.421 175.104 294.805 174.304C295.189 173.472 295.381 172.496 295.381 171.376C295.381 170.256 295.189 169.296 294.805 168.496C294.421 167.664 293.893 167.04 293.221 166.624C292.549 166.176 291.781 165.952 290.917 165.952C290.053 165.952 289.285 166.176 288.613 166.624C287.941 167.04 287.413 167.664 287.029 168.496C286.645 169.296 286.453 170.256 286.453 171.376ZM325.307 182.608C324.475 182.96 323.579 183.296 322.619 183.616C321.691 183.904 320.731 184.128 319.739 184.288C318.779 184.448 317.835 184.528 316.907 184.528C315.531 184.528 314.267 184.304 313.115 183.856C311.963 183.376 311.035 182.608 310.331 181.552C309.659 180.464 309.323 179.008 309.323 177.184V165.616H306.203V158.752H309.323V150.832H318.443V158.752H323.387V165.616H318.443V173.968C318.443 174.8 318.619 175.392 318.971 175.744C319.323 176.064 319.803 176.224 320.411 176.224C320.859 176.224 321.371 176.144 321.947 175.984C322.523 175.824 323.099 175.632 323.675 175.408L325.307 182.608Z" fill="#063B46"/>
<path d="M237.219 227.328C237.219 224.832 237.683 222.608 238.611 220.656C239.571 218.672 240.883 217.12 242.547 216C244.211 214.848 246.115 214.272 248.259 214.272C249.891 214.272 251.395 214.656 252.771 215.424C254.147 216.16 255.187 217.184 255.891 218.496V204.96H265.011V229.92C265.011 230.784 265.139 231.392 265.395 231.744C265.651 232.064 266.099 232.256 266.739 232.32V240C265.171 240.32 263.891 240.48 262.899 240.48C261.363 240.48 260.147 240.192 259.251 239.616C258.355 239.04 257.779 238.16 257.523 236.976L257.331 236.064C256.467 237.6 255.299 238.72 253.827 239.424C252.355 240.128 250.787 240.48 249.123 240.48C247.395 240.48 245.795 240.16 244.323 239.52C242.883 238.88 241.619 237.984 240.531 236.832C239.475 235.648 238.659 234.256 238.083 232.656C237.507 231.024 237.219 229.248 237.219 227.328ZM255.939 230.208V225.696C255.651 224.96 255.251 224.32 254.739 223.776C254.259 223.2 253.715 222.752 253.107 222.432C252.499 222.112 251.875 221.952 251.235 221.952C250.563 221.952 249.939 222.096 249.363 222.384C248.819 222.672 248.339 223.072 247.923 223.584C247.507 224.096 247.187 224.688 246.963 225.36C246.739 226.032 246.627 226.752 246.627 227.52C246.627 228.32 246.739 229.04 246.963 229.68C247.219 230.32 247.571 230.88 248.019 231.36C248.467 231.808 248.995 232.16 249.603 232.416C250.211 232.672 250.883 232.8 251.619 232.8C252.067 232.8 252.483 232.752 252.867 232.656C253.251 232.528 253.619 232.368 253.971 232.176C254.323 231.952 254.659 231.68 254.979 231.36C255.331 231.008 255.651 230.624 255.939 230.208ZM282.917 240.48C280.709 240.48 278.741 240.144 277.013 239.472C275.285 238.768 273.829 237.824 272.645 236.64C271.493 235.456 270.613 234.096 270.005 232.56C269.397 231.024 269.093 229.408 269.093 227.712C269.093 225.28 269.621 223.056 270.677 221.04C271.733 218.992 273.285 217.36 275.333 216.144C277.381 214.896 279.909 214.272 282.917 214.272C285.925 214.272 288.453 214.88 290.501 216.096C292.549 217.312 294.101 218.912 295.157 220.896C296.213 222.88 296.741 225.04 296.741 227.376C296.741 227.856 296.709 228.352 296.645 228.864C296.613 229.344 296.565 229.776 296.501 230.16H278.789C278.853 231.056 279.093 231.792 279.509 232.368C279.957 232.912 280.501 233.312 281.141 233.568C281.813 233.824 282.501 233.952 283.205 233.952C284.197 233.952 285.125 233.728 285.989 233.28C286.885 232.832 287.477 232.208 287.765 231.408L295.493 233.616C294.821 234.96 293.877 236.144 292.661 237.168C291.477 238.192 290.069 239.008 288.437 239.616C286.805 240.192 284.965 240.48 282.917 240.48ZM278.597 224.688H286.949C286.853 223.856 286.613 223.152 286.229 222.576C285.877 222 285.397 221.552 284.789 221.232C284.213 220.912 283.541 220.752 282.773 220.752C282.005 220.752 281.317 220.912 280.709 221.232C280.133 221.552 279.653 222 279.269 222.576C278.917 223.152 278.693 223.856 278.597 224.688ZM305.178 240L296.682 214.752H306.042L310.554 231.888L315.114 214.752H323.61L315.114 240H305.178Z" fill="#063B46"/>
</g>
<defs>
<clipPath id="clip0_9_51">
<rect width="334" height="334" fill="white"/>
</clipPath>
</defs>
</svg>
