<svg width="382" height="197" viewBox="0 0 382 197" fill="none" xmlns="http://www.w3.org/2000/svg">
<path d="M197.336 124.943C191.19 143.432 178.681 159.138 162.036 169.265C145.391 179.391 125.691 183.279 106.447 180.237C87.2026 177.195 69.6631 167.42 56.9531 152.653C44.2431 137.887 37.188 119.087 37.0448 99.6046C36.9016 80.1218 43.6795 61.2208 56.171 46.2688C68.6625 31.3168 86.0564 21.2849 105.254 17.9602C124.452 14.6355 144.206 18.234 160.998 28.1146C177.79 37.9951 190.529 53.5161 196.946 71.9124" stroke="#F97316" stroke-width="4"/>
<path d="M260.031 101.52C260.031 99.152 260.511 96.992 261.471 95.04C262.463 93.056 263.807 91.472 265.503 90.288C267.231 89.104 269.199 88.512 271.407 88.512C273.423 88.512 275.231 89.04 276.831 90.096C278.431 91.152 279.679 92.432 280.575 93.936V78.96H284.799V109.2C284.799 109.712 284.895 110.096 285.087 110.352C285.311 110.576 285.663 110.704 286.143 110.736V114C285.343 114.128 284.719 114.192 284.271 114.192C283.439 114.192 282.703 113.904 282.063 113.328C281.455 112.752 281.151 112.112 281.151 111.408V109.296C280.159 110.896 278.831 112.16 277.167 113.088C275.503 114.016 273.775 114.48 271.983 114.48C270.255 114.48 268.655 114.144 267.183 113.472C265.743 112.768 264.479 111.808 263.391 110.592C262.335 109.376 261.503 108 260.895 106.464C260.319 104.896 260.031 103.248 260.031 101.52ZM280.575 105.216V98.016C280.191 96.928 279.567 95.952 278.703 95.088C277.839 94.192 276.863 93.488 275.775 92.976C274.719 92.432 273.663 92.16 272.607 92.16C271.359 92.16 270.223 92.432 269.199 92.976C268.207 93.488 267.343 94.192 266.607 95.088C265.903 95.952 265.359 96.944 264.975 98.064C264.591 99.184 264.399 100.352 264.399 101.568C264.399 102.816 264.607 104 265.023 105.12C265.471 106.24 266.079 107.232 266.847 108.096C267.647 108.96 268.559 109.632 269.583 110.112C270.639 110.592 271.775 110.832 272.991 110.832C273.759 110.832 274.543 110.688 275.343 110.4C276.175 110.112 276.959 109.712 277.695 109.2C278.431 108.688 279.055 108.096 279.567 107.424C280.079 106.72 280.415 105.984 280.575 105.216ZM302.938 114.48C301.05 114.48 299.322 114.144 297.754 113.472C296.218 112.768 294.874 111.824 293.722 110.64C292.602 109.424 291.722 108.032 291.082 106.464C290.474 104.896 290.17 103.232 290.17 101.472C290.17 99.104 290.714 96.944 291.802 94.992C292.89 93.04 294.394 91.472 296.314 90.288C298.266 89.104 300.49 88.512 302.986 88.512C305.514 88.512 307.706 89.12 309.562 90.336C311.45 91.52 312.906 93.088 313.93 95.04C314.986 96.96 315.514 99.04 315.514 101.28C315.514 101.6 315.498 101.92 315.466 102.24C315.466 102.528 315.45 102.752 315.418 102.912H294.634C294.762 104.544 295.21 106 295.978 107.28C296.778 108.528 297.802 109.52 299.05 110.256C300.298 110.96 301.642 111.312 303.082 111.312C304.618 111.312 306.058 110.928 307.402 110.16C308.778 109.392 309.722 108.384 310.234 107.136L313.882 108.144C313.338 109.36 312.522 110.448 311.434 111.408C310.378 112.368 309.114 113.12 307.642 113.664C306.202 114.208 304.634 114.48 302.938 114.48ZM294.49 99.984H311.578C311.45 98.352 310.986 96.912 310.186 95.664C309.386 94.416 308.362 93.44 307.114 92.736C305.866 92.032 304.49 91.68 302.986 91.68C301.514 91.68 300.154 92.032 298.906 92.736C297.658 93.44 296.634 94.416 295.834 95.664C295.066 96.912 294.618 98.352 294.49 99.984ZM326.754 114L316.914 88.944H321.33L329.202 109.968L337.074 88.944H341.202L331.362 114H326.754Z" fill="#F97316"/>
<path d="M176.103 101.52C176.103 99.152 176.583 96.992 177.543 95.04C178.535 93.056 179.879 91.472 181.575 90.288C183.303 89.104 185.271 88.512 187.479 88.512C189.495 88.512 191.303 89.04 192.903 90.096C194.503 91.152 195.751 92.432 196.647 93.936V78.96H200.871V109.2C200.871 109.712 200.967 110.096 201.159 110.352C201.383 110.576 201.735 110.704 202.215 110.736V114C201.415 114.128 200.791 114.192 200.343 114.192C199.511 114.192 198.775 113.904 198.135 113.328C197.527 112.752 197.223 112.112 197.223 111.408V109.296C196.231 110.896 194.903 112.16 193.239 113.088C191.575 114.016 189.847 114.48 188.055 114.48C186.327 114.48 184.727 114.144 183.255 113.472C181.815 112.768 180.551 111.808 179.463 110.592C178.407 109.376 177.575 108 176.967 106.464C176.391 104.896 176.103 103.248 176.103 101.52ZM196.647 105.216V98.016C196.263 96.928 195.639 95.952 194.775 95.088C193.911 94.192 192.935 93.488 191.847 92.976C190.791 92.432 189.735 92.16 188.679 92.16C187.431 92.16 186.295 92.432 185.271 92.976C184.279 93.488 183.415 94.192 182.679 95.088C181.975 95.952 181.431 96.944 181.047 98.064C180.663 99.184 180.471 100.352 180.471 101.568C180.471 102.816 180.679 104 181.095 105.12C181.543 106.24 182.151 107.232 182.919 108.096C183.719 108.96 184.631 109.632 185.655 110.112C186.711 110.592 187.847 110.832 189.063 110.832C189.831 110.832 190.615 110.688 191.415 110.4C192.247 110.112 193.031 109.712 193.767 109.2C194.503 108.688 195.127 108.096 195.639 107.424C196.151 106.72 196.487 105.984 196.647 105.216ZM218.867 114.48C216.979 114.48 215.267 114.144 213.731 113.472C212.195 112.768 210.867 111.824 209.747 110.64C208.627 109.424 207.763 108.032 207.155 106.464C206.547 104.896 206.243 103.248 206.243 101.52C206.243 99.76 206.547 98.096 207.155 96.528C207.763 94.96 208.627 93.584 209.747 92.4C210.867 91.184 212.195 90.24 213.731 89.568C215.299 88.864 217.011 88.512 218.867 88.512C220.755 88.512 222.467 88.864 224.003 89.568C225.539 90.24 226.867 91.184 227.987 92.4C229.139 93.584 230.019 94.96 230.627 96.528C231.235 98.096 231.539 99.76 231.539 101.52C231.539 103.248 231.235 104.896 230.627 106.464C230.019 108.032 229.155 109.424 228.035 110.64C226.915 111.824 225.571 112.768 224.003 113.472C222.467 114.144 220.755 114.48 218.867 114.48ZM210.563 101.568C210.563 103.296 210.931 104.864 211.667 106.272C212.435 107.68 213.443 108.8 214.691 109.632C215.939 110.432 217.331 110.832 218.867 110.832C220.403 110.832 221.795 110.416 223.043 109.584C224.323 108.752 225.331 107.632 226.067 106.224C226.835 104.784 227.219 103.2 227.219 101.472C227.219 99.744 226.835 98.176 226.067 96.768C225.331 95.36 224.323 94.24 223.043 93.408C221.795 92.576 220.403 92.16 218.867 92.16C217.331 92.16 215.939 92.592 214.691 93.456C213.443 94.288 212.435 95.408 211.667 96.816C210.931 98.224 210.563 99.808 210.563 101.568ZM249.242 112.752C248.89 112.912 248.41 113.12 247.802 113.376C247.194 113.632 246.49 113.856 245.69 114.048C244.89 114.24 244.042 114.336 243.146 114.336C242.122 114.336 241.178 114.16 240.314 113.808C239.45 113.424 238.762 112.848 238.25 112.08C237.738 111.28 237.482 110.288 237.482 109.104V92.256H234.074V88.944H237.482V80.592H241.706V88.944H247.322V92.256H241.706V107.808C241.77 108.704 242.074 109.376 242.618 109.824C243.162 110.24 243.802 110.448 244.538 110.448C245.37 110.448 246.138 110.304 246.842 110.016C247.546 109.728 248.01 109.52 248.234 109.392L249.242 112.752Z" fill="#F97316"/>
<path d="M66.591 122.928C65.503 122.928 64.463 122.768 63.471 122.448C62.479 122.128 61.599 121.616 60.831 120.912L62.799 118.08C63.247 118.496 63.775 118.784 64.383 118.944C64.959 119.104 65.535 119.184 66.111 119.184C66.815 119.184 67.471 119.008 68.079 118.656C68.687 118.304 69.183 117.808 69.567 117.168C69.951 116.56 70.143 115.872 70.143 115.104V88.944H74.367V114.816C74.367 116.384 73.999 117.776 73.263 118.992C72.527 120.24 71.567 121.2 70.383 121.872C69.231 122.576 67.967 122.928 66.591 122.928ZM70.143 84.24V78.96H74.367V84.24H70.143ZM92.1417 114.48C90.2537 114.48 88.5417 114.144 87.0057 113.472C85.4697 112.768 84.1417 111.824 83.0217 110.64C81.9017 109.424 81.0377 108.032 80.4297 106.464C79.8217 104.896 79.5177 103.248 79.5177 101.52C79.5177 99.76 79.8217 98.096 80.4297 96.528C81.0377 94.96 81.9017 93.584 83.0217 92.4C84.1417 91.184 85.4697 90.24 87.0057 89.568C88.5737 88.864 90.2857 88.512 92.1417 88.512C94.0297 88.512 95.7417 88.864 97.2777 89.568C98.8137 90.24 100.142 91.184 101.262 92.4C102.414 93.584 103.294 94.96 103.902 96.528C104.51 98.096 104.814 99.76 104.814 101.52C104.814 103.248 104.51 104.896 103.902 106.464C103.294 108.032 102.43 109.424 101.31 110.64C100.19 111.824 98.8457 112.768 97.2777 113.472C95.7417 114.144 94.0297 114.48 92.1417 114.48ZM83.8377 101.568C83.8377 103.296 84.2057 104.864 84.9417 106.272C85.7097 107.68 86.7177 108.8 87.9657 109.632C89.2137 110.432 90.6057 110.832 92.1417 110.832C93.6777 110.832 95.0697 110.416 96.3177 109.584C97.5977 108.752 98.6057 107.632 99.3417 106.224C100.11 104.784 100.494 103.2 100.494 101.472C100.494 99.744 100.11 98.176 99.3417 96.768C98.6057 95.36 97.5977 94.24 96.3177 93.408C95.0697 92.576 93.6777 92.16 92.1417 92.16C90.6057 92.16 89.2137 92.592 87.9657 93.456C86.7177 94.288 85.7097 95.408 84.9417 96.816C84.2057 98.224 83.8377 99.808 83.8377 101.568ZM123.42 114.48C121.372 114.48 119.548 113.968 117.948 112.944C116.348 111.92 115.084 110.624 114.156 109.056V124.224H109.932V88.944H113.676V93.648C114.668 92.112 115.964 90.88 117.564 89.952C119.164 88.992 120.908 88.512 122.796 88.512C124.524 88.512 126.108 88.864 127.548 89.568C128.988 90.272 130.236 91.232 131.292 92.448C132.348 93.664 133.164 95.056 133.74 96.624C134.348 98.16 134.652 99.776 134.652 101.472C134.652 103.84 134.172 106.016 133.212 108C132.284 109.984 130.972 111.568 129.276 112.752C127.58 113.904 125.628 114.48 123.42 114.48ZM122.124 110.832C123.372 110.832 124.492 110.576 125.484 110.064C126.508 109.52 127.372 108.816 128.076 107.952C128.812 107.056 129.372 106.048 129.756 104.928C130.14 103.808 130.332 102.656 130.332 101.472C130.332 100.224 130.108 99.04 129.66 97.92C129.244 96.8 128.636 95.808 127.836 94.944C127.068 94.08 126.156 93.408 125.1 92.928C124.076 92.416 122.956 92.16 121.74 92.16C120.972 92.16 120.172 92.304 119.34 92.592C118.54 92.88 117.772 93.296 117.036 93.84C116.3 94.352 115.676 94.944 115.164 95.616C114.652 96.288 114.316 97.008 114.156 97.776V104.928C114.636 106.016 115.276 107.008 116.076 107.904C116.876 108.8 117.804 109.52 118.86 110.064C119.916 110.576 121.004 110.832 122.124 110.832ZM153.326 114.48C151.278 114.48 149.454 113.968 147.854 112.944C146.254 111.92 144.99 110.624 144.062 109.056V124.224H139.838V88.944H143.582V93.648C144.574 92.112 145.87 90.88 147.47 89.952C149.07 88.992 150.814 88.512 152.702 88.512C154.43 88.512 156.014 88.864 157.454 89.568C158.894 90.272 160.142 91.232 161.198 92.448C162.254 93.664 163.07 95.056 163.646 96.624C164.254 98.16 164.558 99.776 164.558 101.472C164.558 103.84 164.078 106.016 163.118 108C162.19 109.984 160.878 111.568 159.182 112.752C157.486 113.904 155.534 114.48 153.326 114.48ZM152.03 110.832C153.278 110.832 154.398 110.576 155.39 110.064C156.414 109.52 157.278 108.816 157.982 107.952C158.718 107.056 159.278 106.048 159.662 104.928C160.046 103.808 160.238 102.656 160.238 101.472C160.238 100.224 160.014 99.04 159.566 97.92C159.15 96.8 158.542 95.808 157.742 94.944C156.974 94.08 156.062 93.408 155.006 92.928C153.982 92.416 152.862 92.16 151.646 92.16C150.878 92.16 150.078 92.304 149.246 92.592C148.446 92.88 147.678 93.296 146.942 93.84C146.206 94.352 145.582 94.944 145.07 95.616C144.558 96.288 144.222 97.008 144.062 97.776V104.928C144.542 106.016 145.182 107.008 145.982 107.904C146.782 108.8 147.71 109.52 148.766 110.064C149.822 110.576 150.91 110.832 152.03 110.832Z" fill="#F97316"/>
</svg>
