<svg width="429" height="334" viewBox="0 0 429 334" fill="none" xmlns="http://www.w3.org/2000/svg">
<path d="M315.476 195.001C308.545 228.576 289.409 258.387 261.769 278.668C234.129 298.95 199.95 308.26 165.843 304.797C131.735 301.335 100.124 285.347 77.1236 259.925C54.123 234.504 41.3676 201.455 41.3249 167.173C41.2822 132.89 53.9551 99.81 76.8922 74.3311C99.8294 48.8521 131.401 32.7851 165.499 29.2379C199.598 25.6907 233.8 34.9154 261.49 55.1277C289.181 75.3399 308.391 105.103 315.406 138.661" stroke="#F97316" stroke-width="4"/>
<path d="M320.573 169.52C320.573 167.152 321.053 164.992 322.013 163.04C323.005 161.056 324.349 159.472 326.045 158.288C327.773 157.104 329.741 156.512 331.949 156.512C333.965 156.512 335.773 157.04 337.373 158.096C338.973 159.152 340.221 160.432 341.117 161.936V146.96H345.341V177.2C345.341 177.712 345.437 178.096 345.629 178.352C345.853 178.576 346.205 178.704 346.685 178.736V182C345.885 182.128 345.261 182.192 344.813 182.192C343.981 182.192 343.245 181.904 342.605 181.328C341.997 180.752 341.693 180.112 341.693 179.408V177.296C340.701 178.896 339.373 180.16 337.709 181.088C336.045 182.016 334.317 182.48 332.525 182.48C330.797 182.48 329.197 182.144 327.725 181.472C326.285 180.768 325.021 179.808 323.933 178.592C322.877 177.376 322.045 176 321.437 174.464C320.861 172.896 320.573 171.248 320.573 169.52ZM341.117 173.216V166.016C340.733 164.928 340.109 163.952 339.245 163.088C338.381 162.192 337.405 161.488 336.317 160.976C335.261 160.432 334.205 160.16 333.149 160.16C331.901 160.16 330.765 160.432 329.741 160.976C328.749 161.488 327.885 162.192 327.149 163.088C326.445 163.952 325.901 164.944 325.517 166.064C325.133 167.184 324.941 168.352 324.941 169.568C324.941 170.816 325.149 172 325.565 173.12C326.013 174.24 326.621 175.232 327.389 176.096C328.189 176.96 329.101 177.632 330.125 178.112C331.181 178.592 332.317 178.832 333.533 178.832C334.301 178.832 335.085 178.688 335.885 178.4C336.717 178.112 337.501 177.712 338.237 177.2C338.973 176.688 339.597 176.096 340.109 175.424C340.621 174.72 340.957 173.984 341.117 173.216ZM363.48 182.48C361.592 182.48 359.864 182.144 358.296 181.472C356.76 180.768 355.416 179.824 354.264 178.64C353.144 177.424 352.264 176.032 351.624 174.464C351.016 172.896 350.712 171.232 350.712 169.472C350.712 167.104 351.256 164.944 352.344 162.992C353.432 161.04 354.936 159.472 356.856 158.288C358.808 157.104 361.032 156.512 363.528 156.512C366.056 156.512 368.248 157.12 370.104 158.336C371.992 159.52 373.448 161.088 374.472 163.04C375.528 164.96 376.056 167.04 376.056 169.28C376.056 169.6 376.04 169.92 376.008 170.24C376.008 170.528 375.992 170.752 375.96 170.912H355.176C355.304 172.544 355.752 174 356.52 175.28C357.32 176.528 358.344 177.52 359.592 178.256C360.84 178.96 362.184 179.312 363.624 179.312C365.16 179.312 366.6 178.928 367.944 178.16C369.32 177.392 370.264 176.384 370.776 175.136L374.424 176.144C373.88 177.36 373.064 178.448 371.976 179.408C370.92 180.368 369.656 181.12 368.184 181.664C366.744 182.208 365.176 182.48 363.48 182.48ZM355.032 167.984H372.12C371.992 166.352 371.528 164.912 370.728 163.664C369.928 162.416 368.904 161.44 367.656 160.736C366.408 160.032 365.032 159.68 363.528 159.68C362.056 159.68 360.696 160.032 359.448 160.736C358.2 161.44 357.176 162.416 356.376 163.664C355.608 164.912 355.16 166.352 355.032 167.984ZM387.295 182L377.455 156.944H381.871L389.743 177.968L397.615 156.944H401.743L391.903 182H387.295Z" fill="#F97316"/>
<path d="M236.645 169.52C236.645 167.152 237.125 164.992 238.085 163.04C239.077 161.056 240.421 159.472 242.117 158.288C243.845 157.104 245.813 156.512 248.021 156.512C250.037 156.512 251.845 157.04 253.445 158.096C255.045 159.152 256.293 160.432 257.189 161.936V146.96H261.413V177.2C261.413 177.712 261.509 178.096 261.701 178.352C261.925 178.576 262.277 178.704 262.757 178.736V182C261.957 182.128 261.333 182.192 260.885 182.192C260.053 182.192 259.317 181.904 258.677 181.328C258.069 180.752 257.765 180.112 257.765 179.408V177.296C256.773 178.896 255.445 180.16 253.781 181.088C252.117 182.016 250.389 182.48 248.597 182.48C246.869 182.48 245.269 182.144 243.797 181.472C242.357 180.768 241.093 179.808 240.005 178.592C238.949 177.376 238.117 176 237.509 174.464C236.933 172.896 236.645 171.248 236.645 169.52ZM257.189 173.216V166.016C256.805 164.928 256.181 163.952 255.317 163.088C254.453 162.192 253.477 161.488 252.389 160.976C251.333 160.432 250.277 160.16 249.221 160.16C247.973 160.16 246.837 160.432 245.813 160.976C244.821 161.488 243.957 162.192 243.221 163.088C242.517 163.952 241.973 164.944 241.589 166.064C241.205 167.184 241.013 168.352 241.013 169.568C241.013 170.816 241.221 172 241.637 173.12C242.085 174.24 242.693 175.232 243.461 176.096C244.261 176.96 245.173 177.632 246.197 178.112C247.253 178.592 248.389 178.832 249.605 178.832C250.373 178.832 251.157 178.688 251.957 178.4C252.789 178.112 253.573 177.712 254.309 177.2C255.045 176.688 255.669 176.096 256.181 175.424C256.693 174.72 257.029 173.984 257.189 173.216ZM279.408 182.48C277.52 182.48 275.808 182.144 274.272 181.472C272.736 180.768 271.408 179.824 270.288 178.64C269.168 177.424 268.304 176.032 267.696 174.464C267.088 172.896 266.784 171.248 266.784 169.52C266.784 167.76 267.088 166.096 267.696 164.528C268.304 162.96 269.168 161.584 270.288 160.4C271.408 159.184 272.736 158.24 274.272 157.568C275.84 156.864 277.552 156.512 279.408 156.512C281.296 156.512 283.008 156.864 284.544 157.568C286.08 158.24 287.408 159.184 288.528 160.4C289.68 161.584 290.56 162.96 291.168 164.528C291.776 166.096 292.08 167.76 292.08 169.52C292.08 171.248 291.776 172.896 291.168 174.464C290.56 176.032 289.696 177.424 288.576 178.64C287.456 179.824 286.112 180.768 284.544 181.472C283.008 182.144 281.296 182.48 279.408 182.48ZM271.104 169.568C271.104 171.296 271.472 172.864 272.208 174.272C272.976 175.68 273.984 176.8 275.232 177.632C276.48 178.432 277.872 178.832 279.408 178.832C280.944 178.832 282.336 178.416 283.584 177.584C284.864 176.752 285.872 175.632 286.608 174.224C287.376 172.784 287.76 171.2 287.76 169.472C287.76 167.744 287.376 166.176 286.608 164.768C285.872 163.36 284.864 162.24 283.584 161.408C282.336 160.576 280.944 160.16 279.408 160.16C277.872 160.16 276.48 160.592 275.232 161.456C273.984 162.288 272.976 163.408 272.208 164.816C271.472 166.224 271.104 167.808 271.104 169.568ZM309.784 180.752C309.432 180.912 308.952 181.12 308.344 181.376C307.736 181.632 307.032 181.856 306.232 182.048C305.432 182.24 304.584 182.336 303.688 182.336C302.664 182.336 301.72 182.16 300.856 181.808C299.992 181.424 299.304 180.848 298.792 180.08C298.28 179.28 298.024 178.288 298.024 177.104V160.256H294.616V156.944H298.024V148.592H302.248V156.944H307.864V160.256H302.248V175.808C302.312 176.704 302.616 177.376 303.16 177.824C303.704 178.24 304.344 178.448 305.08 178.448C305.912 178.448 306.68 178.304 307.384 178.016C308.088 177.728 308.552 177.52 308.776 177.392L309.784 180.752Z" fill="#F97316"/>
<path d="M127.133 190.928C126.045 190.928 125.005 190.768 124.013 190.448C123.021 190.128 122.141 189.616 121.373 188.912L123.341 186.08C123.789 186.496 124.317 186.784 124.925 186.944C125.501 187.104 126.077 187.184 126.653 187.184C127.357 187.184 128.013 187.008 128.621 186.656C129.229 186.304 129.725 185.808 130.109 185.168C130.493 184.56 130.685 183.872 130.685 183.104V156.944H134.909V182.816C134.909 184.384 134.541 185.776 133.805 186.992C133.069 188.24 132.109 189.2 130.925 189.872C129.773 190.576 128.509 190.928 127.133 190.928ZM130.685 152.24V146.96H134.909V152.24H130.685ZM152.683 182.48C150.795 182.48 149.083 182.144 147.547 181.472C146.011 180.768 144.683 179.824 143.563 178.64C142.443 177.424 141.579 176.032 140.971 174.464C140.363 172.896 140.059 171.248 140.059 169.52C140.059 167.76 140.363 166.096 140.971 164.528C141.579 162.96 142.443 161.584 143.563 160.4C144.683 159.184 146.011 158.24 147.547 157.568C149.115 156.864 150.827 156.512 152.683 156.512C154.571 156.512 156.283 156.864 157.819 157.568C159.355 158.24 160.683 159.184 161.803 160.4C162.955 161.584 163.835 162.96 164.443 164.528C165.051 166.096 165.355 167.76 165.355 169.52C165.355 171.248 165.051 172.896 164.443 174.464C163.835 176.032 162.971 177.424 161.851 178.64C160.731 179.824 159.387 180.768 157.819 181.472C156.283 182.144 154.571 182.48 152.683 182.48ZM144.379 169.568C144.379 171.296 144.747 172.864 145.483 174.272C146.251 175.68 147.259 176.8 148.507 177.632C149.755 178.432 151.147 178.832 152.683 178.832C154.219 178.832 155.611 178.416 156.859 177.584C158.139 176.752 159.147 175.632 159.883 174.224C160.651 172.784 161.035 171.2 161.035 169.472C161.035 167.744 160.651 166.176 159.883 164.768C159.147 163.36 158.139 162.24 156.859 161.408C155.611 160.576 154.219 160.16 152.683 160.16C151.147 160.16 149.755 160.592 148.507 161.456C147.259 162.288 146.251 163.408 145.483 164.816C144.747 166.224 144.379 167.808 144.379 169.568ZM183.962 182.48C181.914 182.48 180.09 181.968 178.49 180.944C176.89 179.92 175.626 178.624 174.698 177.056V192.224H170.474V156.944H174.218V161.648C175.21 160.112 176.506 158.88 178.106 157.952C179.706 156.992 181.45 156.512 183.338 156.512C185.066 156.512 186.65 156.864 188.09 157.568C189.53 158.272 190.778 159.232 191.834 160.448C192.89 161.664 193.706 163.056 194.282 164.624C194.89 166.16 195.194 167.776 195.194 169.472C195.194 171.84 194.714 174.016 193.754 176C192.826 177.984 191.514 179.568 189.818 180.752C188.122 181.904 186.17 182.48 183.962 182.48ZM182.666 178.832C183.914 178.832 185.034 178.576 186.026 178.064C187.05 177.52 187.914 176.816 188.618 175.952C189.354 175.056 189.914 174.048 190.298 172.928C190.682 171.808 190.874 170.656 190.874 169.472C190.874 168.224 190.65 167.04 190.202 165.92C189.786 164.8 189.178 163.808 188.378 162.944C187.61 162.08 186.698 161.408 185.642 160.928C184.618 160.416 183.498 160.16 182.282 160.16C181.514 160.16 180.714 160.304 179.882 160.592C179.082 160.88 178.314 161.296 177.578 161.84C176.842 162.352 176.218 162.944 175.706 163.616C175.194 164.288 174.858 165.008 174.698 165.776V172.928C175.178 174.016 175.818 175.008 176.618 175.904C177.418 176.8 178.346 177.52 179.402 178.064C180.458 178.576 181.546 178.832 182.666 178.832ZM213.868 182.48C211.82 182.48 209.996 181.968 208.396 180.944C206.796 179.92 205.532 178.624 204.604 177.056V192.224H200.38V156.944H204.124V161.648C205.116 160.112 206.412 158.88 208.012 157.952C209.612 156.992 211.356 156.512 213.244 156.512C214.972 156.512 216.556 156.864 217.996 157.568C219.436 158.272 220.684 159.232 221.74 160.448C222.796 161.664 223.612 163.056 224.188 164.624C224.796 166.16 225.1 167.776 225.1 169.472C225.1 171.84 224.62 174.016 223.66 176C222.732 177.984 221.42 179.568 219.724 180.752C218.028 181.904 216.076 182.48 213.868 182.48ZM212.572 178.832C213.82 178.832 214.94 178.576 215.932 178.064C216.956 177.52 217.82 176.816 218.524 175.952C219.26 175.056 219.82 174.048 220.204 172.928C220.588 171.808 220.78 170.656 220.78 169.472C220.78 168.224 220.556 167.04 220.108 165.92C219.692 164.8 219.084 163.808 218.284 162.944C217.516 162.08 216.604 161.408 215.548 160.928C214.524 160.416 213.404 160.16 212.188 160.16C211.42 160.16 210.62 160.304 209.788 160.592C208.988 160.88 208.22 161.296 207.484 161.84C206.748 162.352 206.124 162.944 205.612 163.616C205.1 164.288 204.764 165.008 204.604 165.776V172.928C205.084 174.016 205.724 175.008 206.524 175.904C207.324 176.8 208.252 177.52 209.308 178.064C210.364 178.576 211.452 178.832 212.572 178.832Z" fill="#F97316"/>
</svg>
