<svg width="334" height="334" viewBox="0 0 334 334" fill="none" xmlns="http://www.w3.org/2000/svg">
<path d="M277.13 250.995C259.226 274.469 234.29 291.609 205.96 299.913C177.629 308.218 147.387 307.252 119.643 297.158C91.9001 287.064 68.108 268.369 51.7378 243.801C35.3676 219.233 27.2759 190.077 28.643 160.586C30.0102 131.095 40.7647 102.813 59.3377 79.8643C77.9107 56.9161 103.33 40.5028 131.889 33.0187C160.447 25.5347 190.649 27.3716 218.09 38.2614C245.53 49.1512 268.774 68.5242 284.429 93.5542" stroke="#F97316" stroke-width="4"/>
<path d="M214.075 136.928C212.987 136.928 211.947 136.768 210.955 136.448C209.963 136.128 209.083 135.616 208.315 134.912L210.283 132.08C210.731 132.496 211.259 132.784 211.867 132.944C212.443 133.104 213.019 133.184 213.595 133.184C214.299 133.184 214.955 133.008 215.563 132.656C216.171 132.304 216.667 131.808 217.051 131.168C217.435 130.56 217.627 129.872 217.627 129.104V102.944H221.851V128.816C221.851 130.384 221.483 131.776 220.747 132.992C220.011 134.24 219.051 135.2 217.867 135.872C216.715 136.576 215.451 136.928 214.075 136.928ZM217.627 98.24V92.96H221.851V98.24H217.627ZM239.626 128.48C237.738 128.48 236.026 128.144 234.49 127.472C232.954 126.768 231.626 125.824 230.506 124.64C229.386 123.424 228.522 122.032 227.914 120.464C227.306 118.896 227.002 117.248 227.002 115.52C227.002 113.76 227.306 112.096 227.914 110.528C228.522 108.96 229.386 107.584 230.506 106.4C231.626 105.184 232.954 104.24 234.49 103.568C236.058 102.864 237.77 102.512 239.626 102.512C241.514 102.512 243.226 102.864 244.762 103.568C246.298 104.24 247.626 105.184 248.746 106.4C249.898 107.584 250.778 108.96 251.386 110.528C251.994 112.096 252.298 113.76 252.298 115.52C252.298 117.248 251.994 118.896 251.386 120.464C250.778 122.032 249.914 123.424 248.794 124.64C247.674 125.824 246.33 126.768 244.762 127.472C243.226 128.144 241.514 128.48 239.626 128.48ZM231.322 115.568C231.322 117.296 231.69 118.864 232.426 120.272C233.194 121.68 234.202 122.8 235.45 123.632C236.698 124.432 238.09 124.832 239.626 124.832C241.162 124.832 242.554 124.416 243.802 123.584C245.082 122.752 246.09 121.632 246.826 120.224C247.594 118.784 247.978 117.2 247.978 115.472C247.978 113.744 247.594 112.176 246.826 110.768C246.09 109.36 245.082 108.24 243.802 107.408C242.554 106.576 241.162 106.16 239.626 106.16C238.09 106.16 236.698 106.592 235.45 107.456C234.202 108.288 233.194 109.408 232.426 110.816C231.69 112.224 231.322 113.808 231.322 115.568ZM270.904 128.48C268.856 128.48 267.032 127.968 265.432 126.944C263.832 125.92 262.568 124.624 261.64 123.056V138.224H257.416V102.944H261.16V107.648C262.152 106.112 263.448 104.88 265.048 103.952C266.648 102.992 268.392 102.512 270.28 102.512C272.008 102.512 273.592 102.864 275.032 103.568C276.472 104.272 277.72 105.232 278.776 106.448C279.832 107.664 280.648 109.056 281.224 110.624C281.832 112.16 282.136 113.776 282.136 115.472C282.136 117.84 281.656 120.016 280.696 122C279.768 123.984 278.456 125.568 276.76 126.752C275.064 127.904 273.112 128.48 270.904 128.48ZM269.608 124.832C270.856 124.832 271.976 124.576 272.968 124.064C273.992 123.52 274.856 122.816 275.56 121.952C276.296 121.056 276.856 120.048 277.24 118.928C277.624 117.808 277.816 116.656 277.816 115.472C277.816 114.224 277.592 113.04 277.144 111.92C276.728 110.8 276.12 109.808 275.32 108.944C274.552 108.08 273.64 107.408 272.584 106.928C271.56 106.416 270.44 106.16 269.224 106.16C268.456 106.16 267.656 106.304 266.824 106.592C266.024 106.88 265.256 107.296 264.52 107.84C263.784 108.352 263.16 108.944 262.648 109.616C262.136 110.288 261.8 111.008 261.64 111.776V118.928C262.12 120.016 262.76 121.008 263.56 121.904C264.36 122.8 265.288 123.52 266.344 124.064C267.4 124.576 268.488 124.832 269.608 124.832ZM300.81 128.48C298.762 128.48 296.938 127.968 295.338 126.944C293.738 125.92 292.474 124.624 291.546 123.056V138.224H287.322V102.944H291.066V107.648C292.058 106.112 293.354 104.88 294.954 103.952C296.554 102.992 298.298 102.512 300.186 102.512C301.914 102.512 303.498 102.864 304.938 103.568C306.378 104.272 307.626 105.232 308.682 106.448C309.738 107.664 310.554 109.056 311.13 110.624C311.738 112.16 312.042 113.776 312.042 115.472C312.042 117.84 311.562 120.016 310.602 122C309.674 123.984 308.362 125.568 306.666 126.752C304.97 127.904 303.018 128.48 300.81 128.48ZM299.514 124.832C300.762 124.832 301.882 124.576 302.874 124.064C303.898 123.52 304.762 122.816 305.466 121.952C306.202 121.056 306.762 120.048 307.146 118.928C307.53 117.808 307.722 116.656 307.722 115.472C307.722 114.224 307.498 113.04 307.05 111.92C306.634 110.8 306.026 109.808 305.226 108.944C304.458 108.08 303.546 107.408 302.49 106.928C301.466 106.416 300.346 106.16 299.13 106.16C298.362 106.16 297.562 106.304 296.73 106.592C295.93 106.88 295.162 107.296 294.426 107.84C293.69 108.352 293.066 108.944 292.554 109.616C292.042 110.288 291.706 111.008 291.546 111.776V118.928C292.026 120.016 292.666 121.008 293.466 121.904C294.266 122.8 295.194 123.52 296.25 124.064C297.306 124.576 298.394 124.832 299.514 124.832Z" fill="#F97316"/>
<path d="M239.659 171.52C239.659 169.152 240.139 166.992 241.099 165.04C242.091 163.056 243.435 161.472 245.131 160.288C246.859 159.104 248.827 158.512 251.035 158.512C253.051 158.512 254.859 159.04 256.459 160.096C258.059 161.152 259.307 162.432 260.203 163.936V148.96H264.427V179.2C264.427 179.712 264.523 180.096 264.715 180.352C264.939 180.576 265.291 180.704 265.771 180.736V184C264.971 184.128 264.347 184.192 263.899 184.192C263.067 184.192 262.331 183.904 261.691 183.328C261.083 182.752 260.779 182.112 260.779 181.408V179.296C259.787 180.896 258.459 182.16 256.795 183.088C255.131 184.016 253.403 184.48 251.611 184.48C249.883 184.48 248.283 184.144 246.811 183.472C245.371 182.768 244.107 181.808 243.019 180.592C241.963 179.376 241.131 178 240.523 176.464C239.947 174.896 239.659 173.248 239.659 171.52ZM260.203 175.216V168.016C259.819 166.928 259.195 165.952 258.331 165.088C257.467 164.192 256.491 163.488 255.403 162.976C254.347 162.432 253.291 162.16 252.235 162.16C250.987 162.16 249.851 162.432 248.827 162.976C247.835 163.488 246.971 164.192 246.235 165.088C245.531 165.952 244.987 166.944 244.603 168.064C244.219 169.184 244.027 170.352 244.027 171.568C244.027 172.816 244.235 174 244.651 175.12C245.099 176.24 245.707 177.232 246.475 178.096C247.275 178.96 248.187 179.632 249.211 180.112C250.267 180.592 251.403 180.832 252.619 180.832C253.387 180.832 254.171 180.688 254.971 180.4C255.803 180.112 256.587 179.712 257.323 179.2C258.059 178.688 258.683 178.096 259.195 177.424C259.707 176.72 260.043 175.984 260.203 175.216ZM282.423 184.48C280.535 184.48 278.823 184.144 277.287 183.472C275.751 182.768 274.423 181.824 273.303 180.64C272.183 179.424 271.319 178.032 270.711 176.464C270.103 174.896 269.799 173.248 269.799 171.52C269.799 169.76 270.103 168.096 270.711 166.528C271.319 164.96 272.183 163.584 273.303 162.4C274.423 161.184 275.751 160.24 277.287 159.568C278.855 158.864 280.567 158.512 282.423 158.512C284.311 158.512 286.023 158.864 287.559 159.568C289.095 160.24 290.423 161.184 291.543 162.4C292.695 163.584 293.575 164.96 294.183 166.528C294.791 168.096 295.095 169.76 295.095 171.52C295.095 173.248 294.791 174.896 294.183 176.464C293.575 178.032 292.711 179.424 291.591 180.64C290.471 181.824 289.127 182.768 287.559 183.472C286.023 184.144 284.311 184.48 282.423 184.48ZM274.119 171.568C274.119 173.296 274.487 174.864 275.223 176.272C275.991 177.68 276.999 178.8 278.247 179.632C279.495 180.432 280.887 180.832 282.423 180.832C283.959 180.832 285.351 180.416 286.599 179.584C287.879 178.752 288.887 177.632 289.623 176.224C290.391 174.784 290.775 173.2 290.775 171.472C290.775 169.744 290.391 168.176 289.623 166.768C288.887 165.36 287.879 164.24 286.599 163.408C285.351 162.576 283.959 162.16 282.423 162.16C280.887 162.16 279.495 162.592 278.247 163.456C276.999 164.288 275.991 165.408 275.223 166.816C274.487 168.224 274.119 169.808 274.119 171.568ZM312.798 182.752C312.446 182.912 311.966 183.12 311.358 183.376C310.75 183.632 310.046 183.856 309.246 184.048C308.446 184.24 307.598 184.336 306.702 184.336C305.678 184.336 304.734 184.16 303.87 183.808C303.006 183.424 302.318 182.848 301.806 182.08C301.294 181.28 301.038 180.288 301.038 179.104V162.256H297.63V158.944H301.038V150.592H305.262V158.944H310.878V162.256H305.262V177.808C305.326 178.704 305.63 179.376 306.174 179.824C306.718 180.24 307.358 180.448 308.094 180.448C308.926 180.448 309.694 180.304 310.398 180.016C311.102 179.728 311.566 179.52 311.79 179.392L312.798 182.752Z" fill="#F97316"/>
<path d="M231.659 227.52C231.659 225.152 232.139 222.992 233.099 221.04C234.091 219.056 235.435 217.472 237.131 216.288C238.859 215.104 240.827 214.512 243.035 214.512C245.051 214.512 246.859 215.04 248.459 216.096C250.059 217.152 251.307 218.432 252.203 219.936V204.96H256.427V235.2C256.427 235.712 256.523 236.096 256.715 236.352C256.939 236.576 257.291 236.704 257.771 236.736V240C256.971 240.128 256.347 240.192 255.899 240.192C255.067 240.192 254.331 239.904 253.691 239.328C253.083 238.752 252.779 238.112 252.779 237.408V235.296C251.787 236.896 250.459 238.16 248.795 239.088C247.131 240.016 245.403 240.48 243.611 240.48C241.883 240.48 240.283 240.144 238.811 239.472C237.371 238.768 236.107 237.808 235.019 236.592C233.963 235.376 233.131 234 232.523 232.464C231.947 230.896 231.659 229.248 231.659 227.52ZM252.203 231.216V224.016C251.819 222.928 251.195 221.952 250.331 221.088C249.467 220.192 248.491 219.488 247.403 218.976C246.347 218.432 245.291 218.16 244.235 218.16C242.987 218.16 241.851 218.432 240.827 218.976C239.835 219.488 238.971 220.192 238.235 221.088C237.531 221.952 236.987 222.944 236.603 224.064C236.219 225.184 236.027 226.352 236.027 227.568C236.027 228.816 236.235 230 236.651 231.12C237.099 232.24 237.707 233.232 238.475 234.096C239.275 234.96 240.187 235.632 241.211 236.112C242.267 236.592 243.403 236.832 244.619 236.832C245.387 236.832 246.171 236.688 246.971 236.4C247.803 236.112 248.587 235.712 249.323 235.2C250.059 234.688 250.683 234.096 251.195 233.424C251.707 232.72 252.043 231.984 252.203 231.216ZM274.567 240.48C272.679 240.48 270.951 240.144 269.383 239.472C267.847 238.768 266.503 237.824 265.351 236.64C264.231 235.424 263.351 234.032 262.711 232.464C262.103 230.896 261.799 229.232 261.799 227.472C261.799 225.104 262.343 222.944 263.431 220.992C264.519 219.04 266.023 217.472 267.943 216.288C269.895 215.104 272.119 214.512 274.615 214.512C277.143 214.512 279.335 215.12 281.191 216.336C283.079 217.52 284.535 219.088 285.559 221.04C286.615 222.96 287.143 225.04 287.143 227.28C287.143 227.6 287.127 227.92 287.095 228.24C287.095 228.528 287.079 228.752 287.047 228.912H266.263C266.391 230.544 266.839 232 267.607 233.28C268.407 234.528 269.431 235.52 270.679 236.256C271.927 236.96 273.271 237.312 274.711 237.312C276.247 237.312 277.687 236.928 279.031 236.16C280.407 235.392 281.351 234.384 281.863 233.136L285.511 234.144C284.967 235.36 284.151 236.448 283.063 237.408C282.007 238.368 280.743 239.12 279.271 239.664C277.831 240.208 276.263 240.48 274.567 240.48ZM266.119 225.984H283.207C283.079 224.352 282.615 222.912 281.815 221.664C281.015 220.416 279.991 219.44 278.743 218.736C277.495 218.032 276.119 217.68 274.615 217.68C273.143 217.68 271.783 218.032 270.535 218.736C269.287 219.44 268.263 220.416 267.463 221.664C266.695 222.912 266.247 224.352 266.119 225.984ZM298.382 240L288.542 214.944H292.958L300.83 235.968L308.702 214.944H312.83L302.99 240H298.382Z" fill="#F97316"/>
</svg>
